#format: frame checksums
#version: 1
#hash: MD5
#tb 0: 1/25
#stream#, dts,        pts, duration,     size, hash
0,         -1,          0,        1,    16756, 9b809fbb1bf9c9cff72b0cf36f1ca032
0,          0,          1,        1,     3620, 1e8b94982cc22692b3b1bbd12d50477a
0,          1,          2,        1,     4277, 2f18f0d3beb4cfc0d5895294f84852f4
0,          2,          3,        1,     3737, 7df4ac6098a3eb96a7c286e6b7384375
0,          3,          4,        1,     4854, 201c54aae234aa11212bde977b867059
0,          4,          5,        1,     3875, 3b198f54a50f00cba0f2fbe20f958d9e
0,          5,          6,        1,     4334, b9a46f8a933a1607e2f6e48ef5a82a6e
0,          6,          7,        1,     3650, 79d167c0bdccb6d2a2df7a9e62120641
0,          7,          8,        1,     4672, e119f1271a7cebebf3c141b381aff60d
0,          8,          9,        1,     3680, 1006070dc6743aecaa4f87040b34c0ba
0,          9,         10,        1,     4082, 6a258720f2011adc6a3dea9f49582847
0,         10,         11,        1,     3787, 59ebc31e2a46e2db096b389284d7be46
0,         11,         12,        1,    15957, 35190fb6254f39e950218616f20974ec
0,         12,         13,        1,     3842, 43ca413debb1c73de5309a93edf44fa1
0,         13,         14,        1,     4184, 88c90afb96b7bdeabb6ad087adc29e57
0,         14,         15,        1,     4020, c387f2429ed1546912e123f136a35dba
0,         15,         16,        1,     4380, df7123a8ee302af8fc2e03f723458373
0,         16,         17,        1,     3972, 0e5d2fdd4fc2e4c0b139900e17b58b58
0,         17,         18,        1,     4392, 6652d29da20ba6847aa3bd2bdb0133b0
0,         18,         19,        1,     4137, 0f7e6b65636565ae46df6d3dd62243f9
0,         19,         20,        1,     4378, a15ab2ac6d042e5d7d4bececa4faca3d
0,         20,         21,        1,     5340, cc2ac2e1a47d9f13348072e9a716f963
0,         21,         22,        1,     5062, 64e92adf2b1044c8f2504723882d47a7
0,         22,         23,        1,     5053, 51dfcd34dd3b4fd302ad5ca250c41e0f
0,         23,         24,        1,    15738, 71eeaa6d3013b1cab4f13a03cc1b7048
0,         24,         25,        1,     3542, 9fe7d66ab16f6621d40fd1ac88f8fc19
0,         25,         26,        1,     4110, 96f90bc828c9746127497e533a8893b0
0,         26,         27,        1,     3911, 8d594355dd8e75adc640587d588ee291
0,         27,         28,        1,     4218, f0e499c66944d38d6889935e1d480dc5
0,         28,         29,        1,     3642, 3962fe3f444a4f3a19615d3cb22a8ee9
0,         29,         30,        1,     4120, 746b19a689ce6afde1c4c92d37e38441
0,         30,         31,        1,     4019, 5fdf49c0edfad42ea264e05492cdf02a
0,         31,         32,        1,     4155, 20d9b0e945460b9b2f0a0a5cd516998a
0,         32,         33,        1,     3830, 1143e0eb8b9fda0932a2529a3538e66d
0,         33,         34,        1,     4493, 3dbdb07efd449e6fa51e7dc2b0e4170c
0,         34,         35,        1,     4733, ddf656f69133aa278df8b0745cfe6bf1
0,         35,         36,        1,    15036, f5f1ec2dce844d9eb8fd8d47bcaf5a7c
0,         36,         37,        1,     4131, 05a94ba464a083966b5a6f06218d7dfe
0,         37,         38,        1,     4460, fbaa6341467634c11fe56a91ef50b2fd
0,         38,         39,        1,     4367, d17259475c94405bc20e2d084d47d34a
0,         39,         40,        1,     4169, 9db29b78154a50f7b957ee5271f8cac1
0,         40,         41,        1,     3723, 4147326d91599a078b4aa900263a0d18
0,         41,         42,        1,     4290, 00f818d6b6d0a334fadab606e8b49416
0,         42,         43,        1,     4094, dc36c1ebe1c484e125e57521ddd00bb9
0,         43,         44,        1,     4129, 3332ed2180b2a5aeb42a1c2828566fe1
0,         44,         45,        1,     5331, eeeacaa77ddddfbea5562014a0285956
0,         45,         46,        1,     5110, 02a8a9efef3eb980bb90a3f3d0aaf154
0,         46,         47,        1,     5088, e1579821d27b1c06857afa176cda8cdf
0,         47,         48,        1,    15396, 6c2c52d19e61067ff816cc5400a7e349
0,         48,         49,        1,     3581, e8d345d2b1894827fef4e1791c9c88b2
0,         49,         50,        1,     4046, 12a061f43293f71c6bfdd6d50345d1e9
0,         50,         51,        1,     4192, 87c73fa916315f2b7689e14fdc84026c
0,         51,         52,        1,     4333, c1c93480e0f2854abcc31a59336d59b5
0,         52,         53,        1,     3885, 9cde3a01bcfcd60f67e788b9ef8a09e4
0,         53,         54,        1,     4249, 33f60c5fe358a4931eed63bdad3216a1
0,         54,         55,        1,     4209, 9135ec8a696a859b8f128062c2c0f7e4
0,         55,         56,        1,     4935, b01e36dc3c1a1df93291320bc83505bb
0,         56,         57,        1,     4058, 7d8b2bbd36276420582fd20eed2fbcc5
0,         57,         58,        1,     4539, d45255dec3ff2c12f272b170af3fe223
0,         58,         59,        1,     3798, e96500ac5b52236a9c4db724895b109d
0,         59,         60,        1,    14302, e4c57ff33f054a30332f10971dcef8df
0,         60,         61,        1,     4326, c34e021cea55b8084cb6e974e29771d5
0,         61,         62,        1,     4306, e0fd8e080099bfb63d467346ec08c46e
0,         62,         63,        1,     4231, 48332ac33da083ea7e60e9827bc6b1bd
0,         63,         64,        1,     4136, 3a3abf878d2fca72e86105d1135b8d35
0,         64,         65,        1,     3944, 9951a5a5ae34b80d3edf8357dac4ccea
0,         65,         66,        1,     4249, f75e280c262e182044295fe32da3395d
0,         66,         67,        1,     4019, 2e523430381d8ecdaf748bdfa09e39b3
0,         67,         68,        1,     4038, 36a29c6cd8ac4d408c73fdbd12465959
0,         68,         69,        1,     5065, f0791e12521b3536ef3043e99333107e
0,         69,         70,        1,     5077, 307180e62f46b0a7eb3c14509d162bdf
0,         70,         71,        1,     4600, c3c9875c0378a10aa10e1f0462cf33fb
0,         71,         72,        1,    14246, 69f524c0efb7dcafba7975a17d63ae33
0,         72,         73,        1,     3460, a65d8cc72097546566f0b48778f5de00
0,         73,         74,        1,     3843, af8607aa45143f3cd5bfd1a72456f245
0,         74,         75,        1,     3894, c67c9ded936fbfef5ccd6cf2722f6610
0,         75,         76,        1,     4082, f3962e4f1a8f4603165881cc0aa134ff
0,         76,         77,        1,     3414, 6932c94cc401dd8fd83e88ccde058029
0,         77,         78,        1,     3755, ca1d8d927d8bf3da1338241d5eafab23
0,         78,         79,        1,     4098, 799657d284b3db0e2b2142788bcb43f2
0,         79,         80,        1,     3910, 56f981f54bc1c8311386e6940effff0f
0,         80,         81,        1,     3627, f5be92c366d4705b04575b7945bc8c55
0,         81,         82,        1,     4206, efee41a5e0b7b45036ba1bcf3cf39021
0,         82,         83,        1,     3924, dfeed0c7c0c401384fb5317a90b14e83
0,         83,         84,        1,    13381, 7f980c38811c17a40833883e90e3292d
0,         84,         85,        1,     3876, 22a3beaf8907a8bb7972ba68dec86ae5
0,         85,         86,        1,     3921, 2fa9ee99e8db7597765ec05fa5017163
0,         86,         87,        1,     4008, c18fa407e6927f5207f45d24f1cd0df4
0,         87,         88,        1,     3816, ac605850133b28bc3e7e7a7d22a56ca6
0,         88,         89,        1,     3805, 0ae52e20e5a513c2a185fd606f2c4d35
0,         89,         90,        1,     4029, 64f82e10c3385e714a1863a8fd37926c
0,         90,         91,        1,     3685, 6b25b2b50a0cdc0f46631cb13798af76
0,         91,         92,        1,     4141, de8d712f65edd32bfeb7e3f4a1394f08
0,         92,         93,        1,     5320, 0147f4ca0d4eb815536c7967a153e3c9
0,         93,         94,        1,     4855, f2e0dd693beff177123995adef356df0
0,         94,         95,        1,     4915, 80521cd80165536ac0daf0edfe73d7a1
0,         95,         96,        1,    14602, 6966f97657182caa7aefb2a23d29accf
0,         96,         97,        1,     3702, 365bb1a6d067ba5ffe619537ef2c4696
0,         97,         98,        1,     4235, c10bd970daf2c30c24426be3e811c423
0,         98,         99,        1,     4021, 5303854b1ce97fbaef74bec5c35b9c08
0,         99,        100,        1,     4622, 083673a5640233d8cb199ab3447d10d0
0,        100,        101,        1,     4189, 28f05bdee675420c14594a35e013d41e
0,        101,        102,        1,     4333, 5eefd6d41da733923574199f759503c5
0,        102,        103,        1,     3990, bd9332872b6ace817cc181f4b0a47760
0,        103,        104,        1,     4351, 65e91af4f4a4416ecfdac637be20b3ae
0,        104,        105,        1,     4813, cba57c08735250d42ed23fab97383590
0,        105,        106,        1,     4967, 5f5a2352f9addb8a28684b8d8e5d608d
0,        106,        107,        1,     4657, fec98559212aa09c010d14ae0f08a8b5
0,        107,        108,        1,    14886, 327cb86d893c6e59d9fce594a1b675a8
0,        108,        109,        1,     4399, d034f95a6857407e5f69a007840284a4
0,        109,        110,        1,     5146, 2dde167a891e60a02d3762a86536b912
0,        110,        111,        1,     1664, 18e66701aec105ee3d645af0338f6d00
0,        111,        112,        1,      813, c1923a1f195c19d6ca859c5be53525c3
0,        112,        113,        1,      955, 5b363efa9775d4c0ffb06a42d944dabc
0,        113,        114,        1,      688, c9d801bcfe1cd409de6b71ae8032d247
0,        114,        115,        1,     1294, 484e6cff5dd08127911f9c00ecad2658
0,        115,        116,        1,     1028, c0d81598ec3053fe6949f86b29352a30
0,        116,        117,        1,     3614, a416af4f1006bc0567e1d56bd1293ffa
0,        117,        118,        1,     3140, ff342e46eb0770c3748adeaf8fd73700
0,        118,        119,        1,     3290, 4052c16f82c5e00893b8c499bb05e86c
0,        119,        120,        1,    16684, 91172db8b5a2bb70505e9af05b25674f
0,        120,        121,        1,     1222, 6f095bcae542212a8bbc381e6ecd65d3
0,        121,        122,        1,      739, 3edd7b6d24bb1958bee373119151c817
0,        122,        123,        1,      716, 4f39d2781af93701ec16d5ae2d1cdd6a
0,        123,        124,        1,      479, 08ba0feaf7cae73ae8f3642d0e70f2fc
0,        124,        125,        1,      659, fa0d89712d6cf6b2c3d1eeb9844c1621
